<svg width="54" height="45" viewBox="0 0 54 45" fill="none" xmlns="http://www.w3.org/2000/svg">
<path d="M1 1V0.5H0.5V1H1ZM53 1H53.5V0.5H53V1ZM53 44V44.5H53.5V44H53ZM1 44H0.5V44.5H1V44ZM5.6875 17.4851C5.6875 17.7612 5.91136 17.9851 6.1875 17.9851C6.46364 17.9851 6.6875 17.7612 6.6875 17.4851H5.6875ZM20.8125 6.79597C21.0886 6.79597 21.3125 6.57211 21.3125 6.29597C21.3125 6.01983 21.0886 5.79597 20.8125 5.79597V6.79597ZM48.3125 26.9528C48.3125 26.6767 48.0886 26.4528 47.8125 26.4528C47.5364 26.4528 47.3125 26.6767 47.3125 26.9528H48.3125ZM33.1875 37.642C32.9114 37.642 32.6875 37.8658 32.6875 38.142C32.6875 38.4181 32.9114 38.642 33.1875 38.642V37.642ZM14.6875 31.2365C14.6875 31.5126 14.9114 31.7365 15.1875 31.7365C15.4636 31.7365 15.6875 31.5126 15.6875 31.2365H14.6875ZM15.1875 13.1816L15.606 12.9081C15.485 12.7229 15.2568 12.6393 15.0448 12.7024C14.8328 12.7655 14.6875 12.9604 14.6875 13.1816H15.1875ZM27 31.2563L26.5815 31.5299C26.6738 31.6711 26.8311 31.7563 26.9998 31.7563C27.1686 31.7564 27.3259 31.6714 27.4184 31.5302L27 31.2563ZM38.8125 13.2091H39.3125C39.3125 12.988 39.1673 12.7931 38.9554 12.7299C38.7435 12.6667 38.5152 12.7502 38.3941 12.9352L38.8125 13.2091ZM38.3125 31.2563C38.3125 31.5325 38.5364 31.7563 38.8125 31.7563C39.0886 31.7563 39.3125 31.5325 39.3125 31.2563H38.3125ZM1 1.5H53V0.5H1V1.5ZM52.5 1V44H53.5V1H52.5ZM53 43.5H1V44.5H53V43.5ZM1.5 44V1H0.5V44H1.5ZM6.6875 17.4851V9.73878H5.6875V17.4851H6.6875ZM6.6875 9.73878C6.6875 8.97648 7.09012 8.2517 7.80934 7.70145C8.52901 7.15085 9.54494 6.79597 10.6875 6.79597V5.79597C9.34478 5.79597 8.1107 6.21179 7.2017 6.90724C6.29223 7.60304 5.6875 8.59967 5.6875 9.73878H6.6875ZM10.6875 6.79597H20.8125V5.79597H10.6875V6.79597ZM47.3125 26.9528V34.6992H48.3125V26.9528H47.3125ZM47.3125 34.6992C47.3125 35.4615 46.9099 36.1862 46.1907 36.7365C45.471 37.2871 44.4551 37.642 43.3125 37.642V38.642C44.6552 38.642 45.8893 38.2261 46.7983 37.5307C47.7078 36.8349 48.3125 35.8383 48.3125 34.6992H47.3125ZM43.3125 37.642H33.1875V38.642H43.3125V37.642ZM15.6875 31.2365V13.1816H14.6875V31.2365H15.6875ZM14.769 13.4551L26.5815 31.5299L27.4185 30.9828L15.606 12.9081L14.769 13.4551ZM27.4184 31.5302L39.2309 13.4829L38.3941 12.9352L26.5816 30.9825L27.4184 31.5302ZM38.3125 13.2091V31.2563H39.3125V13.2091H38.3125Z" fill="white"/>
</svg>
